<svg width="106" height="56" viewBox="0 0 106 56" fill="none" xmlns="http://www.w3.org/2000/svg">
<path d="M0.445312 19.0152C0.768851 17.5593 0.966264 16.0622 1.43786 14.6557C4.03165 6.89898 9.59761 2.37219 17.3982 0.603703C22.3335 -0.512229 27.2688 -0.0516005 32.0067 1.74157C38.4254 4.17085 42.1077 8.93618 43.5225 15.5714C44.1339 18.4367 44.6522 21.3293 45.4418 24.1507C46.0286 26.2427 46.9992 28.2223 47.7779 30.2595C48.9048 33.2125 47.3611 35.9955 44.2656 36.6316C44.1038 36.6645 43.9393 36.6837 43.6815 36.7276C43.6815 38.7318 43.7062 40.7087 43.6815 42.6856C43.6267 46.2993 41.5758 49.0494 38.2719 49.8692C37.4007 50.0349 36.5156 50.1167 35.6287 50.1133C34.8528 50.1516 34.0741 50.1133 33.1748 50.1133C33.1748 51.0181 33.1912 51.7967 33.1748 52.5809C33.1199 54.7881 31.9135 55.9863 29.7091 55.9918C24.2747 56.0027 18.8386 56.0027 13.4006 55.9918C11.1687 55.9918 9.9184 54.7223 9.91566 52.4932C9.91566 48.9726 9.89647 45.4521 9.91566 41.9288C9.93773 41.5914 9.86931 41.2541 9.71748 40.9519C9.56565 40.6497 9.33591 40.3935 9.05198 40.2097C3.94117 36.5164 1.40222 31.37 0.650951 25.2282C0.60457 24.9991 0.538521 24.7743 0.453538 24.5565L0.445312 19.0152ZM28.9989 51.8242C28.9989 51.3224 28.9989 50.8865 28.9989 50.4532C29.0291 47.758 30.814 45.9758 33.5203 45.9456C34.3757 45.9456 35.2312 45.9456 36.0866 45.9456C38.3815 45.9456 39.4728 44.8489 39.481 42.554C39.481 40.0233 39.4673 37.4925 39.481 34.9618C39.4947 33.3496 40.2762 32.5819 41.8719 32.5462C42.2147 32.5462 42.5574 32.5462 42.8974 32.5462C44.0681 32.5462 44.1477 32.4091 43.7199 31.2959C42.933 29.2615 41.9898 27.2709 41.4086 25.1789C40.6079 22.2917 40.065 19.3305 39.4426 16.405C38.1732 10.4223 34.6334 6.5919 28.6891 5.0455C25.6155 4.24762 22.487 3.94876 19.3449 4.46423C13.3704 5.42936 8.80247 8.48377 6.13465 14.0141C4.52244 17.3317 4.33326 20.9181 4.76373 24.5428C5.35048 29.5796 7.31639 33.8651 11.5471 36.9003C13.2689 38.1314 14.1107 39.7463 14.0833 41.8713C14.0421 44.8133 14.0833 47.7553 14.0833 50.6973V51.8379L28.9989 51.8242Z" fill="#22244F"/>
<path d="M76.9704 51.8329H91.9244V50.7362C91.9244 47.7613 91.9519 44.7864 91.9244 41.8114C91.8829 40.8509 92.0909 39.896 92.5282 39.0397C92.9654 38.1834 93.6171 37.455 94.4195 36.9255C98.5954 33.9533 100.583 29.7336 101.219 24.79C101.685 21.179 101.387 17.6393 100.021 14.2175C99.9094 13.9674 99.8492 13.6973 99.8441 13.4234C99.839 13.1495 99.8892 12.8774 99.9915 12.6233C100.094 12.3692 100.246 12.1384 100.44 11.9445C100.633 11.7506 100.864 11.5977 101.118 11.4948C101.379 11.3748 101.664 11.3131 101.952 11.314C102.239 11.3148 102.523 11.3782 102.784 11.4997C103.045 11.6213 103.276 11.798 103.462 12.0178C103.648 12.2376 103.783 12.4951 103.86 12.7725C104.49 14.8509 105.173 16.9621 105.395 19.1062C105.974 24.7462 105.055 30.1394 101.943 35.0089C100.685 37.0144 99.0356 38.7452 97.0928 40.0978C96.3306 40.6215 96.0537 41.2329 96.0674 42.1514C96.1167 45.6062 96.0921 49.0609 96.0838 52.5129C96.0838 54.7365 94.8253 55.995 92.5852 55.9978C87.1472 55.9978 81.7101 55.9978 76.274 55.9978C74.0805 55.9978 72.8713 54.7749 72.8247 52.5677C72.8083 51.7918 72.8247 51.0158 72.8247 50.1247H70.0198C65.2654 50.111 62.307 47.1361 62.2905 42.3571C62.2905 40.5146 62.2905 38.6693 62.2905 36.8734C62.1863 36.7774 62.1425 36.7061 62.0876 36.6952C58.504 36.007 56.8589 33.2733 58.3587 29.9721C60.5275 25.1958 61.4406 20.1015 62.5949 15.051C64.3935 7.19561 69.4111 2.59753 77.1267 0.793393C80.5325 0.0102261 84.0541 -0.134799 87.5128 0.365666C89.2265 0.601465 90.1258 1.91755 89.5253 3.2967C89.1195 4.22619 88.3079 4.66763 87.1783 4.49489C83.8573 3.9914 80.4682 4.17808 77.2226 5.04326C71.3359 6.60063 67.8071 10.4063 66.5294 16.3506C65.9043 19.2844 65.3669 22.2456 64.5663 25.1246C63.9877 27.2193 63.0473 29.2099 62.2631 31.2444C61.8107 32.4179 61.8793 32.5275 63.1241 32.533C63.464 32.533 63.8068 32.533 64.1495 32.533C65.6767 32.5742 66.4636 33.3556 66.4801 34.902C66.502 37.4327 66.4801 39.9634 66.4801 42.4942C66.4801 44.8494 67.5768 45.9215 69.9321 45.9297C70.8204 45.9297 71.7115 45.9132 72.5999 45.9297C75.1251 45.99 76.9018 47.7722 76.9594 50.2865C76.9814 50.7773 76.9704 51.2516 76.9704 51.8329Z" fill="#E02A44"/>
<path d="M98.1319 6.19961C98.1284 6.74892 97.9107 7.27519 97.5251 7.66642C97.1395 8.05766 96.6164 8.28297 96.0672 8.29439C95.517 8.28072 94.9944 8.04987 94.6138 7.65225C94.2331 7.25463 94.0252 6.72255 94.0355 6.17219C94.0392 5.62898 94.2584 5.10947 94.6451 4.72794C95.0318 4.34641 95.5542 4.13411 96.0974 4.13774C96.6406 4.14138 97.1601 4.36065 97.5417 4.74733C97.9232 5.134 98.1355 5.6564 98.1319 6.19961Z" fill="#22244F"/>
</svg>
